<svg width="274" height="274" viewBox="0 0 274 274" fill="none" xmlns="http://www.w3.org/2000/svg">
<path fill-rule="evenodd" clip-rule="evenodd" d="M119.875 141.12L135.504 176.072H127.038L123.937 168.55H107.715L104.597 176.072H96.3062L111.885 141.12H119.875ZM145.834 141.12L163.21 162.324V141.12H171.2V176.072H164.514L147.096 154.86V176.072H139.106V141.12H145.834ZM203.753 155.203V161.488H187.523V169.578H206.545V176.072H179.491V141.12H205.901V147.614H187.514V155.203H203.753ZM145.617 123.21C147.272 123.226 148.911 122.875 150.414 122.182C151.954 121.441 153.317 120.378 154.409 119.064L159.599 123.853C157.949 125.878 155.832 127.472 153.431 128.5C150.816 129.596 148.001 130.14 145.166 130.097C142.599 130.119 140.049 129.671 137.644 128.776C135.407 127.937 133.363 126.655 131.634 125.007C129.935 123.382 128.584 121.429 127.664 119.265C125.759 114.628 125.759 109.426 127.664 104.789C128.587 102.621 129.947 100.666 131.659 99.0475C133.39 97.401 135.433 96.1192 137.669 95.2782C142.772 93.4259 148.379 93.5122 153.423 95.5206C155.824 96.5366 157.941 98.1231 159.591 100.142L154.401 104.931C153.295 103.644 151.935 102.6 150.406 101.864C148.902 101.174 147.263 100.826 145.608 100.844C144.074 100.842 142.551 101.125 141.12 101.68C139.79 102.192 138.58 102.975 137.568 103.979C136.562 104.989 135.774 106.195 135.253 107.522C134.15 110.45 134.15 113.679 135.253 116.607C135.772 117.935 136.561 119.142 137.568 120.151C138.575 121.161 139.786 121.944 141.12 122.449C142.558 122.984 144.083 123.242 145.617 123.21ZM197.711 99.0977C200.325 101.663 202.107 104.957 202.824 108.549C203.541 112.142 203.16 115.867 201.731 119.24C200.799 121.409 199.43 123.364 197.711 124.982C195.959 126.617 193.907 127.897 191.668 128.751C189.252 129.666 186.687 130.122 184.104 130.097C181.489 130.121 178.891 129.665 176.44 128.751C174.181 127.901 172.113 126.612 170.356 124.957C168.646 123.336 167.286 121.382 166.361 119.215C164.466 114.607 164.466 109.439 166.361 104.831C167.292 102.663 168.66 100.712 170.381 99.0977C172.139 97.4443 174.207 96.1547 176.465 95.3033C181.372 93.4979 186.761 93.4979 191.668 95.3033C193.915 96.153 195.969 97.4431 197.711 99.0977ZM49.6366 103.277C51.2334 103.277 52.7943 103.75 54.122 104.637C55.4497 105.524 56.4845 106.785 57.0956 108.26C57.7067 109.736 57.8666 111.359 57.555 112.925C57.2435 114.491 56.4746 115.93 55.3455 117.059C54.2164 118.188 52.7778 118.957 51.2117 119.269C49.6455 119.58 48.0222 119.42 46.547 118.809C45.0717 118.198 43.8108 117.163 42.9237 115.836C42.0365 114.508 41.563 112.947 41.563 111.35C41.5697 109.213 42.4232 107.166 43.9366 105.657C45.4499 104.149 47.4997 103.302 49.6366 103.302V103.277ZM224.363 103.277C225.961 103.275 227.522 103.747 228.851 104.633C230.18 105.519 231.216 106.78 231.828 108.255C232.441 109.73 232.602 111.353 232.291 112.92C231.981 114.487 231.212 115.926 230.084 117.056C228.955 118.186 227.516 118.956 225.95 119.268C224.384 119.58 222.76 119.421 221.284 118.81C219.808 118.199 218.547 117.164 217.659 115.836C216.772 114.509 216.298 112.947 216.298 111.35C216.305 109.215 217.157 107.169 218.669 105.66C220.18 104.152 222.228 103.304 224.363 103.302V103.277ZM57.7185 142.641C59.8563 143.553 61.6788 145.073 62.9588 147.013C64.1681 149.062 64.806 151.398 64.806 153.778C64.806 156.158 64.1681 158.494 62.9588 160.544C61.6788 162.483 59.8563 164.004 57.7185 164.915C55.1586 165.985 52.4019 166.503 49.6282 166.436H42.6245V176.072H34.5007V141.12H49.6282C52.4019 141.053 55.1586 141.572 57.7185 142.641ZM102.6 94.5511V129.495H95.9635L78.5627 108.283V126.01H78.663V169.47H96.2143V176.064H70.5477V94.5511H77.2338L94.6096 115.755V94.5511H102.6ZM120.051 94.5511V129.495H111.994V94.5511H120.051ZM110.264 162.441H121.371L115.83 149.069L110.264 162.441ZM184.054 123.21C185.535 123.216 187.003 122.932 188.375 122.374C189.677 121.855 190.858 121.072 191.843 120.076C192.854 119.067 193.645 117.861 194.167 116.532C195.27 113.604 195.27 110.375 194.167 107.447C193.646 106.124 192.864 104.919 191.869 103.903C190.884 102.905 189.703 102.122 188.4 101.605C187.018 101.052 185.543 100.769 184.054 100.769C182.576 100.763 181.111 101.047 179.741 101.605C178.43 102.136 177.24 102.929 176.244 103.935C175.248 104.94 174.468 106.138 173.95 107.455C172.846 110.375 172.846 113.596 173.95 116.515C174.461 117.851 175.244 119.066 176.248 120.084C177.226 121.089 178.409 121.873 179.716 122.382C181.095 122.936 182.568 123.217 184.054 123.21ZM42.6245 159.842H49.2104C51.7177 159.842 53.5731 159.315 54.8017 158.245C55.9842 157.059 56.6482 155.453 56.6482 153.778C56.6482 152.103 55.9842 150.497 54.8017 149.311C53.5731 148.241 51.7093 147.715 49.2104 147.715H42.6245V159.842ZM228.024 45.9675C247.562 65.5071 260.293 90.8157 264.334 118.151C268.376 145.485 263.513 173.395 250.465 197.752V178.02C260.421 150.403 259.964 120.102 249.179 92.7978C238.394 65.4935 218.021 43.0599 191.879 29.7018C165.737 16.3437 135.62 12.9782 107.174 20.2362C78.7285 27.4942 53.9061 44.8773 37.3598 69.1274C20.8134 93.3775 13.6792 122.83 17.2941 151.963C20.9091 181.097 35.0252 207.913 56.9965 227.383C78.9678 246.854 107.286 257.643 136.643 257.729C166 257.815 194.381 247.191 216.465 227.849C217.426 227.013 218.279 226.244 219.014 225.559C219.399 225.208 219.85 224.798 220.293 224.355V176.072V147.715H209.044V141.12H239.499V147.715H228.317V176.072V227.757L227.121 228.927C226.386 229.654 225.45 230.49 224.455 231.434C223.461 232.378 222.55 233.181 221.747 233.883C202.86 250.398 179.559 261.032 154.708 264.479C129.857 267.926 104.54 264.035 81.8712 253.284C59.2024 242.533 40.17 225.391 27.1146 203.966C14.0592 182.542 7.54995 157.769 8.38749 132.694C9.22503 107.619 17.3728 83.3354 31.8288 62.8298C46.2847 42.3242 66.4186 26.4906 89.7542 17.2762C113.09 8.06184 138.61 5.86851 163.175 10.9659C187.741 16.0634 210.281 28.2293 228.024 45.9675ZM137 0C164.096 0 190.584 8.03491 213.113 23.0887C235.643 38.1424 253.202 59.5389 263.572 84.5724C273.941 109.606 276.654 137.152 271.368 163.727C266.081 190.303 253.033 214.714 233.874 233.874C214.714 253.033 190.303 266.081 163.727 271.368C137.152 276.654 109.606 273.941 84.5724 263.572C59.5389 253.202 38.1424 235.643 23.0887 213.113C8.03491 190.584 0 164.096 0 137C0 100.665 14.4339 65.8189 40.1264 40.1264C65.8189 14.4339 100.665 0 137 0V0Z" fill="white"/>
</svg>
